<svg xmlns="http://www.w3.org/2000/svg" viewBox="0 0 65 65"><path d="M.003 61.138C-.025 50.293 0 60.333 0 30.5V0h30.5c29.833 0 17.452.01 30.466.038l.103 3.821c3.822-.01.633-.031 1.966-.031l1.928.034C64.99 9.75 65 4.667 65 34.5V65H34.5c-29.833 0-16.935-.044-30.534-.003l-.035-3.89c-1.687.044-.39.031-1.724.031zM61.14 5.966C61.013 15.123 61 15.833 61 33.5V61H33.5c-17.667 0-17.585.048-27.534.139L6 62.93c10.57.092 10.167.07 28.5.07H63V34.5c0-18.333-.012-18.722-.036-28.534M4.034 59.034C4.02 49.498 4 49.167 4 31.5V4h27.5c17.667 0 16.61.042 27.437.004l-.01-1.88C48.07 2.04 48.833 2 30.5 2H2v28.5c0 18.333.047 18.722.07 28.569zM59 32.5V6H6v53h53zm-46 5V20h32l.022 3.25c.018 2.675.592 3.515 3.248 4.75 6.206 2.885 5.718 10.239 0 14-2.807 1.846-3.227 1.756-3.248 7.25L45 55H13zm30 0V22H15v31h28zm6 1.5c1.118-1.082 1.962-1.557 2-4 .059-3.804-3.265-6.058-5-6-1.037.034-1 2.667-1 6 0 6.402-.372 8.234 4 4zM20 15c0-1.1.45-2 1-2s1 .9 1 2-.45 2-1 2-1-.9-1-2zm8-1.5c0-1.925.45-3.5 1-3.5s1 1.575 1 3.5-.45 3.5-1 3.5-1-1.575-1-3.5zm8 1.5c0-1.1.45-2 1-2s1 .9 1 2-.45 2-1 2-1-.9-1-2z"/></svg>