<svg xmlns="http://www.w3.org/2000/svg" viewBox="0 0 65 65"><path d="M60.951 2.049c-.004 1.943 0-2.216-.004 1.943L62.805 4h2.24c.15 30.403-.045.667-.045 30.5V65H34.5c-12.55 0-.073.097-30.573-.052v-2.142c-.069-2.874.073 2.044-.004-1.514H.149C0 30.5 0 60.332 0 30.5V0h30.5c30.224 0 0 0 30.404-.045M60.929 6c.07 27.5.07 9.833.07 27.5V61H33.5c-17.666 0-.194.121-27.596.245v1.728C34.5 63 16.167 63 34.5 63H63V34.5c0-18.333 0 0-.124-28.5M3.779 58.903c.22-27.403.22-9.736.22-27.403V4h27.5c17.668 0-.194.098 27.5.072V2.124C30.5 2 48.834 2 30.5 2H2v28.5c0 18.333-.024.122.197 28.427zM58.999 32.5V6H6v53h53zm-9.902 11.126c-4.607-4.636-2.15-2.224-4.607-4.636l-4.469-4.385-3.023 2.897-3.024 2.897 4.013 4.088c3.903 3.978.914.84 4.908 5.026l-1.46 1.364c-7.184-7.104-3.759-3.68-7.184-7.104l-6.227-6.228-5.488 5.42c-3.018 2.98 0 0-5.728 5.859l-1.461-1.363c6.44-6.728 3.033-3.321 6.44-6.728l6.194-6.195 2.224 2.224 2.224 2.224 3.803-3.713 3.803-3.713 5.184 5.185c2.852 2.851 0 0 5.533 5.323zM36.57 25.43c-3.032-3.033-.886-8.186 3.38-8.186C42.337 17.243 45 19.614 45 22s-2.639 5.05-5 4.854c-1.018-.084-2.565-.56-3.429-1.425zm6.707-3.404c0-1.832-1.302-2.953-3.009-3.112-1.482-.138-2.514.6-3.1 1.42-1.507 2.108.716 5.25 3.173 4.902 1.653-.235 2.936-1.377 2.936-3.21z"/></svg>