<svg xmlns="http://www.w3.org/2000/svg" viewBox="0 0 65 65"><path d="M4 63c0-1.333.015 3.794-.052-1.854H.052C.044 52.382 0 60.333 0 30.5V0h30.5L61.028.05C61.015 8.52 61 .044 61 2l.097 1.996c3.263.02.472.004 1.806.004 1.956 0-1.903.045 2.048-.028l.195 29.603L65 65H3.972c-.024-3.756 0-.097.028-2M61.124 6.097C61.114 14.57 61 15.833 61 33.5V61H33.5c-17.667 0-10.702.017-27.549.075L6 63.072C20.022 63.034 16.167 63 34.5 63H63V34.5c0-18.333.033-19.882-.026-28.451M58.95 2.027C47.315 1.967 48.833 2 30.5 2H2v28.5c0 18.333-.033 16.766.026 28.695h1.85C3.934 47.559 4 49.168 4 31.5V4h27.5c17.667 0 14.5-.066 27.549.022zM59 32.5V6H6v53h53zm-40 0V10h27v45H19zm25 0V12H21v41h23zM30.623 50.5c-.63-1.977.197-3.548 2.401-3.548 2.238 0 3.155 2.652 1.77 4.048-1.433 1.445-3.86.473-4.171-.5zm3.547-.819c.16-1.21-.64-1.38-.878-1.497-.616-.304-1.585.297-1.56 1.22.015.582.547 1.06 1.097 1.06.55 0 1.273-.276 1.34-.783zM35 16.022c-2.5-.022-1.077.002-2.452.002s2.452-.002-2.524-.002l.049-2.02L32.5 14c1.375 0 0 0 2.549.002z"/></svg>