<svg xmlns="http://www.w3.org/2000/svg" viewBox="0 0 65 65"><path d="M3.966 61.038C3.586 61.047 3.333 61 2 61c-1.956 0-1.518.022-1.966.038L0 30.121V0h30.5l30.469.069C61.056 5.164 61 .044 61 2l.034 1.997S62.426 4.007 63 4c.752-.01 1.105.012 2 .031l.069 30.297L65 65H34.5l-30.469.034C3.978 64.002 4 64.956 4 63M61.105 6.034C61.082 9.994 61 15.833 61 33.5V61H33.5c-17.667 0-20.098-.02-27.466.036L6 62.896c4.992.092 10.167.104 28.5.104H63V34.5c0-18.333-.012-24.575-.07-28.466M4.067 58.966C3.952 54.283 4 49.167 4 31.5V4h27.5c17.667 0 18.859.021 27.603.033l-.07-1.894C51.083 2.081 48.834 2 30.5 2H2v28.5c0 18.333-.022 22.957-.033 28.431M59 32.501V6H6v53h53zM23.444 47.625c-4.872-2.269-10.626-7.86-13.376-12.999-1.166-2.179-1.054-2.852.967-5.796 4.18-6.089 7.416-9.06 12.465-11.448 8.77-4.146 17.08-2.727 24.463 4.18 2.584 2.417 5.521 5.922 6.527 7.788 1.806 3.355 1.8 3.433-.492 6.771-4.217 6.14-7.439 9.103-12.498 11.494-6.33 2.993-11.644 2.996-18.056.01zm19.809-3.237c2.3-1.617 5.656-4.87 7.456-7.23 3.074-4.03 3.187-4.459 1.859-7.027-2.133-4.124-9.75-10.707-14.021-12.116-8.408-2.775-17.437.884-24.262 9.832-3.72 4.876-3.579 5.608 2.337 12.155 7.745 8.573 18.22 10.298 26.63 4.386zM28.2 36.8c-2.144-2.247-2.22-6.409.373-5.776.81.198 1.87-1.005 1.427-2.024-.706-1.62.667-2 2.8-2 3.633 0 5.279 1.658 5.2 5.5-.073 3.56-1.575 5.5-5.5 5.5-1.705 0-3.363-.218-4.3-1.2zm3.237-5.113c-2.949 3.182-2.392 4.3 1.407 4.12 2.113-.1 2.749-.964 2.99-2.672.568-4.008-1.538-4.533-4.397-1.448"/></svg>