<svg xmlns="http://www.w3.org/2000/svg" viewBox="0 0 81 81"><path d="M30.5 79.541c-2.75-.799-5.286-1.473-5.636-1.497s-3.391-1.884-6.758-4.132C7.334 66.719 0 53.185 0 40.5 0 24.266 11.337 8.253 27 2.362c6.112-2.299 20.888-2.299 27 0C69.663 8.253 81 24.266 81 40.5c0 16.261-11.568 32.561-27 38.044-6.427 2.284-17.46 2.752-23.5.997zM39 76.5c0-.825.675-1.5 1.5-1.5s1.5.695 1.5 1.545c0 1.24.741 1.411 3.75.866 16.696-3.025 28.636-14.965 31.661-31.66.545-3.01.374-3.75-.866-3.75-.85 0-1.545-.676-1.545-1.5s.695-1.5 1.545-1.5c1.24 0 1.411-.742.866-3.75C74.386 18.553 62.446 6.613 45.75 3.588c-3.009-.545-3.75-.374-3.75.866C42 5.305 41.325 6 40.5 6S39 5.305 39 4.455c0-1.24-.741-1.411-3.75-.866C18.554 6.614 6.614 18.554 3.589 35.25c-.545 3.009-.374 3.75.866 3.75.85 0 1.545.675 1.545 1.5S5.305 42 4.455 42c-1.24 0-1.411.741-.866 3.75 1.329 7.335 4.582 14.224 9.08 19.227 5.403 6.009 10.863 9.406 18.355 11.42C38.096 78.298 39 78.309 39 76.5zM19 60.994c0-.553 3.687-6.541 8.193-13.307l8.193-12.302 12.302-8.193c17.526-11.672 17.792-11.406 6.12 6.12l-8.194 12.302-12.301 8.193C21.193 61.88 19 62.98 19 60.994zm16.75-12.201c3.988-2.67 7.25-5.149 7.25-5.509C43 42.326 38.789 38 37.856 38c-.653 0-8.131 10.494-11.334 15.905-1.004 1.696-.645 1.497 9.228-5.112z"/></svg>