<svg xmlns="http://www.w3.org/2000/svg" width="67" height="66" viewBox="0 0 67 66"><path d="M32.808 41.33s4.617 4.62 11.097 11.075l9.655 9.62 4.47-4.594c3.357-3.45 5.26-3.318 4.15-4.361-1.234-1.163-2.399 1.354-2.506.234l-1.385-1.088c2.058-2.119-.164-4.63-2.591-2.216-1.6 1.59-3.556-.22-2.349-1.467 2.75-2.843.603-4.874-1.349-3.037-.92.866-2.302-.758-1.513-1.68 1.613-1.883-.65-3.758-2.919-1.872-2.28 1.893-4.041.237-2.068-1.944 1.637-1.81.07-4.307-1.43-2.543-1.257 1.478-3.303-.767-1.069-2.392l-1.145-1.144C19.04 56.804 14.17 61.1 9.38 62.491 3.198 64.29 2 64.357 2 62.905c0-.603.678-3.428 1.507-6.279 1.25-4.3 2.952-6.62 10.003-13.635l8.496-8.452-11.01-11.041-11.01-11.042 6.28-6.222L12.543.01l10.941 10.975L34.426 21.96l10.142-9.98C55.46 1.262 58.068.068 62 4c4.52 4.52 3.653 5.75-22.715 32.196m3.617-5.185c12.526 12.027.119-.264 12.526 12.027l10.595 10.497-6.284 6.228-6.383 6.228-10.451-10.19a662.2 662.2 0 0 1-12.273-12.295m5.654-8.292l22.77-22.786-2.809-2.691-2.809-2.691-22.926 22.942L7.586 52.93l2.381 2.535C11.277 56.86 12.611 58 12.932 58c.322 0 10.83-10.254 23.354-22.786zm-7.483-14.238c-.492-.285-.526.38-1.303 1.024-2.188 1.816-3.953.05-2.063-1.93 1.49-1.561-1.315-3.465-1.315-3.465-2.03 2.322-3.376.343-1.51-1.478 0 0-1.913-3.479-3.7-1.548-2.412 2.607-4.296.178-1.856-2.147 1.578-1.503-1.675-3.018-1.675-3.018-1.74 2.038-3.257-.235-1.58-1.908 0 0-1.246-2.129-1.637-1.766-4.072 3.766-1.194.836-3.676 3.272L3.976 12.44l9.743 9.78C19.078 27.599 23.724 32 24.044 32c.32 0 1.874-1.35 3.454-2.998 2.87-2.996 0 0 4.568-4.763"/></svg>