<svg xmlns="http://www.w3.org/2000/svg" viewBox="0 0 78 77"><path d="M32.642 74.796c-.338-1.263-.621-3.291-.628-4.508-.01-1.632-1.129-2.711-4.264-4.114l-4.25-1.902-3.183 2.364c-4.223 3.136-5.307 3.001-9.344-1.164-3.696-3.813-3.737-3.114.597-9.972 1.034-1.637.989-2.676-.249-5.723-1.254-3.084-2.14-3.835-5.167-4.38C.889 44.449 0 43.358 0 37.846c0-5.208.08-5.29 6.106-6.286 3.082-.51 3.838-1.19 5.214-4.692 1.57-4 1.55-4.171-.856-7.326C9.108 17.765 8 15.879 8 15.352 8 13.94 14.38 8 15.892 8c.714 0 2.645.959 4.29 2.13 2.747 1.956 3.325 2.022 7.011.805 4.294-1.417 4.32-1.452 5.282-7.234l.633-3.798 5.652.298L44.412.5 45.497 5c.97 4.017 1.521 4.652 5.151 5.92 3.8 1.327 4.265 1.278 7.113-.75C59.436 8.976 61.209 8 61.7 8c.49 0 2.555 1.702 4.586 3.782l3.693 3.782-2.545 3.745c-2.353 3.463-2.447 4.016-1.247 7.335C67.526 30.345 70.128 32 74.612 32c2.41 0 2.474.183 2.185 6.237l-.298 6.236-3.801.615c-4.323.699-4.893 1.18-6.635 5.603-1.154 2.929-1.032 3.486 1.495 6.798l2.752 3.609-3.858 3.951C64.329 67.221 62.19 69 61.7 69s-2.264-.976-3.94-2.17c-2.848-2.028-3.313-2.077-7.112-.75-3.63 1.268-4.182 1.902-5.151 5.92l-1.086 4.5-5.577.296c-5.092.27-5.632.096-6.193-2zm9.932-3.546c.337-1.512.797-3.45 1.024-4.304.227-.854 2.75-2.541 5.61-3.749l5.196-2.196 3.682 2.437 3.683 2.437 2.281-2.429 2.282-2.428-2.571-3.614-2.571-3.614 2.373-5.145c2.108-4.569 2.825-5.245 6.405-6.037 3.712-.822 4.03-1.152 4.03-4.191 0-3.052-.302-3.36-4.025-4.108-3.6-.724-4.275-1.351-6.408-5.961l-2.384-5.152 2.522-3.712 2.522-3.712-2.382-2.381-2.38-2.382-3.517 2.5-3.515 2.502-5.21-2.202c-2.868-1.211-5.398-2.901-5.625-3.755-.227-.855-.688-2.792-1.024-4.304C42.048 3.394 41.462 3 38.48 3c-2.939 0-3.483.35-3.494 2.25-.03 4.894-1.142 6.419-6.261 8.581l-5.13 2.167-3.682-2.437-3.682-2.436-2.298 2.445-2.298 2.446 2.323 3.142 2.322 3.141-1.997 5.6c-1.945 5.454-2.12 5.623-6.64 6.46C3.236 35.171 3 35.381 3 38.498c0 3.113.24 3.328 4.614 4.142 4.425.823 4.696 1.075 6.575 6.12l1.96 5.262-2.193 3.547-2.193 3.548 2.285 2.432 2.285 2.432 3.372-2.571 3.371-2.572 5.385 2.232c5.396 2.237 6.495 3.698 6.525 8.678.012 1.9.556 2.25 3.495 2.25 2.982 0 3.569-.394 4.093-2.75zM30.5 58.134c-5.824-2.652-10.993-8.852-12.452-14.933-3.919-16.337 13.291-31.099 28.734-24.648C54.957 21.968 60 29.578 60 38.5c0 15.438-15.728 25.907-29.5 19.634zm16.116-3.047c2.264-1.029 5.414-3.571 7-5.65 2.558-3.354 2.884-4.59 2.884-10.937s-.326-7.583-2.884-10.937c-5.306-6.956-14.285-9.259-22.157-5.683-6.199 2.815-11.448 10.436-11.448 16.62 0 2.958 2.395 8.83 4.736 11.611 5.411 6.431 14.24 8.44 21.869 4.976zm-14.85-9.005c-4.737-4.232-4.737-10.93 0-15.163 5.861-5.237 13.866-3.437 16.889 3.798 4.325 10.351-8.424 18.93-16.889 11.366zm10.689-.703c2.442-.937 4.683-5.98 3.952-8.894-1.397-5.565-8.707-7.276-12.952-3.03C32.105 34.805 31 37.075 31 38.5c0 5.076 6.298 8.858 11.455 6.88z"/></svg>