<svg xmlns="http://www.w3.org/2000/svg" viewBox="0 0 73 74"><path d="M2 72c-2.528-2.528-2.537-5.048-.029-8.236 1.962-2.494 1.962-2.515 0-4.29C-.798 56.968-.503 55.303 3.4 51.4c3.788-3.788 6.035-4.222 8.818-1.703 1.794 1.624 2.294 1.279 11.533-7.96l9.657-9.658-1.704-3.573c-4.774-10.012.15-22.622 10.528-26.958C47.2-.528 51.584-.371 57 2.078c9.714 4.392 15.382 12.676 15.455 22.586.038 5.276-.387 6.777-2.955 10.423-5.659 8.035-15.418 10.918-23.963 7.081l-3.963-1.78-16.537 16.826C7.642 74.913 5.98 75.98 2 72zm21.491-17.022L39.4 38.956l-2.208-2.208-2.208-2.209-15.992 15.969C4.325 65.154 1.78 68.446 3.667 70.333c1.908 1.908 5.26-.688 19.824-15.355zm-14.18 1.22c2.085-2.177 2.417-3.07 1.487-4-1.783-1.783-3.192-1.472-5.77 1.273-1.926 2.05-2.105 2.731-1.052 4 1.728 2.082 2.237 1.96 5.335-1.273zm53.553-18.101c9.233-6.574 9.236-20.041.008-28.796-8.54-8.102-19.516-8.267-26.142-.392-5.903 7.016-5.714 15.032.547 23.223 6.648 8.697 18.026 11.35 25.587 5.965zm-13.26-3.146C44.031 33.303 38 25.792 38 20.5c0-3.384 2.408-7.972 5.217-9.94 4.91-3.438 14.532-.926 18.263 4.77 3.229 4.927 3.662 8.745 1.499 13.213-2.72 5.619-7.806 8.056-13.375 6.408zm7.304-3.404c7.837-4.052 5.269-15.884-4.228-19.482-9.34-3.54-15.433 7.592-8.485 15.505 4.758 5.418 7.978 6.426 12.713 3.977z"/></svg>