<svg xmlns="http://www.w3.org/2000/svg" viewBox="0 0 73 73"><path d="M26.686 72.353c-1.025-1.025-.83-3.943.452-6.756C28.508 62.589 32.632 61 39.065 61h4.767l7.584-11.534c9.84-14.965 9.906-16.179 1.415-26.216-3.373-3.988-6.865-7.25-7.76-7.25-.894 0-2.573-.663-3.73-1.473-1.588-1.113-3.72-1.323-8.71-.857l-6.605.617 3.584 3.967C33.75 22.836 36 27.656 36 31.942c0 5.026-4.205 6.558-18 6.558-9.266 0-12.154-.356-14.864-1.835C-.042 34.932-.193 34.607.414 30.81c.818-5.114 2.735-8.805 6.557-12.627C9.475 15.679 10 14.348 10 10.5c0-3.81.529-5.184 2.922-7.577 3.715-3.715 7.319-3.78 10.872-.195 2.446 2.466 3.277 2.695 8.686 2.394 3.29-.183 6.877-.96 7.973-1.727C44.892.286 52 2.768 52 7.426 52 9.538 66.843 27 68.637 27 70.429 27 73 31.03 73 33.838c0 1.425-1.357 3.662-3.353 5.528-1.844 1.724-6.094 7.242-9.444 12.263l-6.091 9.128 5.027.483c6.041.58 8.97 3.088 9.198 7.876l.162 3.385-20.564.27c-11.31.149-20.872-.039-21.25-.416zM66 68.571c0-.786-.707-2.136-1.571-3-2.32-2.32-31.537-2.32-33.857 0-.865.865-1.572 2.215-1.572 3C29 69.758 32.133 70 47.5 70S66 69.758 66 68.571zm-8.653-17.563C61.006 45.513 64 40.788 64 40.508c0-.279-.663-.508-1.474-.508s-4.203 4.059-7.539 9.019C47.962 59.467 47.227 61 49.24 61c.8 0 4.448-4.496 8.107-9.992zM68.8 36.8c3.884-3.884-1.727-9.986-5.796-6.304-2.413 2.184-2.533 3.832-.433 5.932 1.871 1.873 4.567 2.034 6.228.373zm-37.976-2.401c3.563-1.457 3.597-1.889.694-8.899-2.322-5.609-4.554-6.714-13.51-6.69-4.663.012-8.696.516-9.504 1.187C6.538 21.628 3 29.201 3 31.776c0 1.627.904 2.393 3.75 3.177 7.977 2.198 17.903 1.97 24.074-.553zm31.678-7.403c.891-1.441-10.654-14.244-11.806-13.092-1.029 1.029-.297 2.222 5.766 9.403 4.096 4.853 4.985 5.396 6.04 3.69zM23 10.7C23 5.068 21.826 3 18.629 3 15.011 3 13 5.913 13 11.155V16h10v-5.3zm26.201-.242c.992-2.178.852-2.85-.979-4.68-1.83-1.83-2.502-1.971-4.68-.98C41.882 5.556 41 6.764 41 8.279c0 5.033 6.156 6.668 8.201 2.18zM38 9.123c0-1.637-.608-1.819-4.75-1.421-5.966.573-7.25.974-7.25 2.267C26 10.563 28.545 11 32 11c5.202 0 6-.25 6-1.877z"/></svg>