<svg xmlns="http://www.w3.org/2000/svg" viewBox="0 0 73 73"><path d="M33.744 59.513l-6.877-13.178-13.106-6.936C6.554 35.586-.008 31.97-.25 31.744c-1.206-1.124 5.47-3.583 37.108-17.171C59.222 4.967 72.021-.462 72.657.174c1.139 1.14-29.549 72.818-31.174 72.823-.56.002-4.042-6.066-7.739-13.484zm18.832-19.268c6.109-14.25 12.013-28.285 12.363-29.297.35-1.012-7.57 7.385-17.223 16.958L30.167 45.312l5.144 10.344C38.141 61.345 40.753 66 41.116 66c.364 0 5.35-11.505 11.46-25.755zm9.956-32.284C62.02 7.448 7 31.151 7 31.885c0 .363 4.612 2.974 10.25 5.803L27.5 42.83l17.214-17.12C54.181 16.298 62.71 8.14 62.532 7.962z"/></svg>